<svg viewBox="0 0 342.11 64.96" xmlns="http://www.w3.org/2000/svg"><defs><clipPath id="eon-area"><rect x="285.5" y="44" width="70" height="40"/></clipPath><clipPath id="rest-area"><path d="M-20 -20H362V44H285.5V85H-20Z"/></clipPath></defs><path class="signet" d="m40.81 37.14c1.68 3.98 3.31 7.96 4.87 11.96l-16.28-5.3c-.62-1.56-4.95-11.78-6.55-15.18-1.62 3.44-5.91 13.57-6.55 15.18l-16.3 5.3c6.59-16.83 13.92-32.99 22.85-48.89v-.03.03c6.8 12.15 12.65 24.29 17.97 36.93zm2.97-10.02c1.23 2.48 6.52 15.19 7.01 16.59l16.2 5.51c-6.36-16.9-13.47-33.18-22.16-49.21-2.48 4.31-7.27 13.2-7.42 13.52.21.42 4.58 9.52 6.38 13.59z" fill="#afcb08"/><path d="m295.28 56.42c1.68.28 3.42 0 5.13.04.48 0 .86-.25.89-.74-.06-.84.44-2.87-.96-2.6-1.86.46-3.41 1.73-4.82 2.96-.08.08-.14.19-.23.34m2.93 2.86h-3.71c-.57 0-.67.14-.51.67.63 2.13 3.2 3.16 5.1 1.86.97-.67 1.96-.75 3.01-.81.91.03 4.54-.17 2.93 1.48-3.74 2.96-9.02 2.98-13.1.68-9.18-5.87 4.57-13.75 10.67-13.89 2.36.27 2.74 3.25 2.89 5.15.48 5.37-3.19 5.07-7.28 4.94v-.07m18.99 2.48c.63.07 1.18-.19 1.46-.9.68-1.64 1.09-3.34 1.22-5.12.03-.44-.22-.62-.6-.68-.97-.18-1.61.14-2.04 1.04-.66 1.41-1 2.89-1.22 4.42-.14 1.03.04 1.25 1.16 1.25m-1.32 2.77c-2.23-.16-5.89-.38-4.91-3.56 1.53-4.45 2.5-8.32 7.92-8.69 2.22-.27 6.7-.11 6.12 3.15-.55 2.45-1.41 4.79-2.94 6.81-1.42 2-3.89 2.17-6.14 2.23 0 .03 0 .04-.01.07m13.92-11.44h.34c.69.03 1.07.38 1.12 1.05.28 3.18 5.42-1.57 7.17-1.46 1.72-.41 3.88.48 3.45 2.53-.41 1.89-.93 3.76-1.45 5.62-.26.96-.63 1.89-.94 2.83-.16.49-.51.78-1.03.74-.72-.21-2.7.1-2.3-1.14.55-2.02 1.46-3.99 1.74-6.05-.57-3.27-7.8 3.94-8.69 5.06-.44.47-.85.94-1.29 1.42-.66.74-2.29.88-3.02.22-.12-.11-.14-.45-.08-.66.91-3.3 2.12-6.48 3.38-9.66.07-.18.31-.36.52-.42.34-.1.71-.1 1.07-.14v.04m-20.79 3.24s.25 0 .42.03c1.39.14.83 1.61.42 2.44-.42.92-2.16 1.4-3.01.82-1.17-1.18.53-3.4 2.16-3.28m-198-43.28c1.44 8.82 2.19 17.47 2.42 26.33h-6.6c-.25-6.64-.62-13.34-1.44-19.91l-5.27 19.91h-7.01l-5.24-19.95c-.86 6.56-1.19 13.3-1.42 19.95h-6.43c.27-8.86.97-17.51 2.44-26.33h9.31l5.01 18.87 5.01-18.87zm22.87 5.4h-9.61v4.95h8.98v5.42h-8.98v5.16h9.61v5.42h-16.16v-26.35h16.16v5.42zm26.2 20.94h-6.57v-10.55h-8.73v10.55h-6.57v-26.34h6.57v10.29h8.73v-10.29h6.57zm4.85-26.34c7.9-.77 21.73-.34 19.34 10.89-.59 2.18-2.19 3.86-4.19 4.91 1.86 3.32 3.58 6.9 5.13 10.54h-7.2c-1.21-2.87-2.7-5.83-4.26-8.59-.75.11-1.5.12-2.29.14v8.46h-6.57v-26.35zm6.56 12.75c1.7.04 3.58-.06 4.9-1.03 2.61-1.89 1.4-5.78-1.72-6.27-.86-.24-2.12-.28-3.15-.26v7.54h-.03zm40.72-12.75c3.28 8.47 6.05 17.53 7.69 26.36h-6.75c-.27-1.54-.57-3.16-.9-4.69h-8.43c-.34 1.59-.62 3.11-.9 4.68h-6.57c1.63-8.83 4.45-17.88 7.69-26.36h8.2-.03zm-1.17 16.45c-.87-3.31-1.87-6.6-3.02-9.8-1.15 3.22-2.19 6.48-3.05 9.8h6.08zm41.94-16.45c1.44 8.82 2.19 17.47 2.42 26.33h-6.6c-.25-6.64-.62-13.34-1.44-19.91l-5.27 19.91h-7.01l-5.24-19.95c-.86 6.56-1.19 13.3-1.42 19.95h-6.43c.27-8.86.97-17.51 2.44-26.33h9.31l5.01 18.87 5.01-18.87zm6.7 0c5.43-.3 11.48-.76 15.94 2.31 3.59 2.34 4.47 7.41 2.7 11.13-2.17 4.36-7.18 5.78-11.95 5.98h-.11v6.94h-6.57v-26.36zm6.56 13.94c2.25.1 4.82-.39 5.82-2.56.74-1.6.43-3.81-1.03-4.93-1.27-.99-3.1-1.24-4.79-1.12zm31.94-8.54h-9.61v4.95h8.98v5.42h-8.98v5.16h9.61v5.42h-16.16v-26.35h16.16v5.42zm4.35-5.4c7.9-.77 21.73-.34 19.34 10.89-.59 2.18-2.19 3.86-4.19 4.91 1.86 3.32 3.58 6.9 5.13 10.54h-7.2c-1.21-2.87-2.7-5.83-4.26-8.59-.75.11-1.5.12-2.29.14v8.46h-6.57v-26.35zm6.57 12.75c1.7.04 3.58-.06 4.9-1.03 2.61-1.89 1.4-5.78-1.72-6.27-.86-.24-2.12-.28-3.15-.26v7.54h-.03zm33-7.35h-9.61v4.95h8.98v5.42h-8.98v5.16h9.61v5.42h-16.16v-26.35h16.16v5.42zm-120.14 37.91h.94l.07.64c.93-.99 2.66-.99 3.56.03.21.25.37.53.49.88.83 2.72-1.13 4.59-3.86 4.35v2.5l-1.2.14zm1.21 4.84c1.07.06 2.32-.13 2.67-1.26.28-.85.18-2.15-.71-2.57-.4-.21-.95-.17-1.35.04-.23.11-.42.27-.6.48v3.31zm8.23-4.94c.4 0 .77.07 1.11.19 1.99.68 2.34 3.61.92 4.99-.82.8-2.16.99-3.22.6-2.96-1.1-2.03-5.97 1.19-5.79zm-.06 1.02c-.22 0-.42.04-.63.14-.43.19-.74.54-.9 1-.59 1.44.57 3.37 2.22 2.67 1.21-.53 1.34-2.39.53-3.31-.31-.34-.76-.51-1.22-.51zm12.27-.92c-.32 1.97-.8 3.88-1.52 5.77h-1.52l-1.16-4.46-1.16 4.46h-1.49c-.7-1.91-1.21-3.79-1.52-5.77h1.23c.05.38.12.77.21 1.16.22 1.16.52 2.32.89 3.43l1.22-4.61h1.31l1.22 4.64c.36-1.13.68-2.3.89-3.48.08-.4.15-.78.21-1.16h1.2v.02zm5.95 5.21c-.3.21-.63.37-.99.49-3.29 1.09-5.21-2.44-3.31-4.98.23-.26.51-.47.82-.62 2.1-.89 3.7.89 3.35 2.98h-3.69v.05c.03.48.19.93.53 1.25.83.75 2.2.53 3.02-.14l.26.96zm-1.26-2.99c0-.19-.03-.38-.1-.55-.05-.16-.14-.31-.25-.42-.11-.12-.23-.21-.37-.27-.44-.2-1.01-.08-1.34.26-.25.27-.4.61-.47.99h2.53zm2.84-2.22h.94l.1.75c.27-.36.58-.69 1-.81.32-.09.67-.08.96.07l-.11 1.07c-.66-.36-1.31.11-1.68.7v4.01h-1.2v-5.79zm8.62 5.21c-.3.21-.63.37-.99.49-3.29 1.09-5.21-2.44-3.31-4.98.23-.26.51-.47.82-.62 2.1-.89 3.7.89 3.35 2.98h-3.69v.05c.03.48.19.93.53 1.25.83.75 2.2.53 3.02-.14l.26.96zm-1.26-2.99c0-.19-.03-.38-.1-.55-.05-.16-.14-.31-.25-.42-.11-.12-.23-.21-.37-.27-.44-.2-1.01-.08-1.34.26-.25.27-.4.61-.47.99h2.53zm6.8 3.55-.07-.63c-.25.26-.53.45-.83.56-.91.37-2.07.16-2.72-.59-.21-.25-.37-.53-.49-.88-.83-2.72 1.14-4.59 3.87-4.35v-2.61l1.2-.15v8.63h-.96zm-.26-4.84c-.81-.02-1.69 0-2.26.57-.19.19-.33.41-.41.67-.54 1.4.39 3.34 2.07 2.53.23-.11.42-.27.6-.48v-3.3zm6.24-3.64 1.2-.15v3.33c.7-.61 1.77-.73 2.61-.38.62.28 1.04.78 1.26 1.44.37 1.14.19 2.64-.75 3.43-1.01.93-2.59.95-3.94.83-.14 0-.26 0-.38-.03v-8.48zm1.2 7.53c1.06.06 2.31-.12 2.67-1.23.54-1.4-.4-3.31-2.07-2.5-.23.11-.42.27-.6.48v3.27zm10.25-4.82c-.2.96-.48 1.99-.79 2.94-.59 1.72-1.22 3.61-2.52 4.87-.73.69-1.82 1.04-2.72.52l.14-1c.38.26.85.28 1.27.11.64-.29 1.04-.89 1.35-1.53-.67-1.52-1.3-2.97-1.77-4.52-.15-.47-.27-.93-.38-1.38h1.23c.36 1.59.95 3.17 1.6 4.67.6-1.52 1.05-3.08 1.38-4.67h1.21z" fill="#636b6f" class="text" clip-path="url(#rest-area)"/><path d="m295.28 56.42c1.68.28 3.42 0 5.13.04.48 0 .86-.25.89-.74-.06-.84.44-2.87-.96-2.6-1.86.46-3.41 1.73-4.82 2.96-.08.08-.14.19-.23.34m2.93 2.86h-3.71c-.57 0-.67.14-.51.67.63 2.13 3.2 3.16 5.1 1.86.97-.67 1.96-.75 3.01-.81.91.03 4.54-.17 2.93 1.48-3.74 2.96-9.02 2.98-13.1.68-9.18-5.87 4.57-13.75 10.67-13.89 2.36.27 2.74 3.25 2.89 5.15.48 5.37-3.19 5.07-7.28 4.94v-.07m18.99 2.48c.63.07 1.18-.19 1.46-.9.68-1.64 1.09-3.34 1.22-5.12.03-.44-.22-.62-.6-.68-.97-.18-1.61.14-2.04 1.04-.66 1.41-1 2.89-1.22 4.42-.14 1.03.04 1.25 1.16 1.25m-1.32 2.77c-2.23-.16-5.89-.38-4.91-3.56 1.53-4.45 2.5-8.32 7.92-8.69 2.22-.27 6.7-.11 6.12 3.15-.55 2.45-1.41 4.79-2.94 6.81-1.42 2-3.89 2.17-6.14 2.23 0 .03 0 .04-.01.07m13.92-11.44h.34c.69.03 1.07.38 1.12 1.05.28 3.18 5.42-1.57 7.17-1.46 1.72-.41 3.88.48 3.45 2.53-.41 1.89-.93 3.76-1.45 5.62-.26.96-.63 1.89-.94 2.83-.16.49-.51.78-1.03.74-.72-.21-2.7.1-2.3-1.14.55-2.02 1.46-3.99 1.74-6.05-.57-3.27-7.8 3.94-8.69 5.06-.44.47-.85.94-1.29 1.42-.66.74-2.29.88-3.02.22-.12-.11-.14-.45-.08-.66.91-3.3 2.12-6.48 3.38-9.66.07-.18.31-.36.52-.42.34-.1.71-.1 1.07-.14v.04m-20.79 3.24s.25 0 .42.03c1.39.14.83 1.61.42 2.44-.42.92-2.16 1.4-3.01.82-1.17-1.18.53-3.4 2.16-3.28m-198-43.28c1.44 8.82 2.19 17.47 2.42 26.33h-6.6c-.25-6.64-.62-13.34-1.44-19.91l-5.27 19.91h-7.01l-5.24-19.95c-.86 6.56-1.19 13.3-1.42 19.95h-6.43c.27-8.86.97-17.51 2.44-26.33h9.31l5.01 18.87 5.01-18.87zm22.87 5.4h-9.61v4.95h8.98v5.42h-8.98v5.16h9.61v5.42h-16.16v-26.35h16.16v5.42zm26.2 20.94h-6.57v-10.55h-8.73v10.55h-6.57v-26.34h6.57v10.29h8.73v-10.29h6.57zm4.85-26.34c7.9-.77 21.73-.34 19.34 10.89-.59 2.18-2.19 3.86-4.19 4.91 1.86 3.32 3.58 6.9 5.13 10.54h-7.2c-1.21-2.87-2.7-5.83-4.26-8.59-.75.11-1.5.12-2.29.14v8.46h-6.57v-26.35zm6.56 12.75c1.7.04 3.58-.06 4.9-1.03 2.61-1.89 1.4-5.78-1.72-6.27-.86-.24-2.12-.28-3.15-.26v7.54h-.03zm40.72-12.75c3.28 8.47 6.05 17.53 7.69 26.36h-6.75c-.27-1.54-.57-3.16-.9-4.69h-8.43c-.34 1.59-.62 3.11-.9 4.68h-6.57c1.63-8.83 4.45-17.88 7.69-26.36h8.2-.03zm-1.17 16.45c-.87-3.31-1.87-6.6-3.02-9.8-1.15 3.22-2.19 6.48-3.05 9.8h6.08zm41.94-16.45c1.44 8.82 2.19 17.47 2.42 26.33h-6.6c-.25-6.64-.62-13.34-1.44-19.91l-5.27 19.91h-7.01l-5.24-19.95c-.86 6.56-1.19 13.3-1.42 19.95h-6.43c.27-8.86.97-17.51 2.44-26.33h9.31l5.01 18.87 5.01-18.87zm6.7 0c5.43-.3 11.48-.76 15.94 2.31 3.59 2.34 4.47 7.41 2.7 11.13-2.17 4.36-7.18 5.78-11.95 5.98h-.11v6.94h-6.57v-26.36zm6.56 13.94c2.25.1 4.82-.39 5.82-2.56.74-1.6.43-3.81-1.03-4.93-1.27-.99-3.1-1.24-4.79-1.12zm31.94-8.54h-9.61v4.95h8.98v5.42h-8.98v5.16h9.61v5.42h-16.16v-26.35h16.16v5.42zm4.35-5.4c7.9-.77 21.73-.34 19.34 10.89-.59 2.18-2.19 3.86-4.19 4.91 1.86 3.32 3.58 6.9 5.13 10.54h-7.2c-1.21-2.87-2.7-5.83-4.26-8.59-.75.11-1.5.12-2.29.14v8.46h-6.57v-26.35zm6.57 12.75c1.7.04 3.58-.06 4.9-1.03 2.61-1.89 1.4-5.78-1.72-6.27-.86-.24-2.12-.28-3.15-.26v7.54h-.03zm33-7.35h-9.61v4.95h8.98v5.42h-8.98v5.16h9.61v5.42h-16.16v-26.35h16.16v5.42zm-120.14 37.91h.94l.07.64c.93-.99 2.66-.99 3.56.03.21.25.37.53.49.88.83 2.72-1.13 4.59-3.86 4.35v2.5l-1.2.14zm1.21 4.84c1.07.06 2.32-.13 2.67-1.26.28-.85.18-2.15-.71-2.57-.4-.21-.95-.17-1.35.04-.23.11-.42.27-.6.48v3.31zm8.23-4.94c.4 0 .77.07 1.11.19 1.99.68 2.34 3.61.92 4.99-.82.8-2.16.99-3.22.6-2.96-1.1-2.03-5.97 1.19-5.79zm-.06 1.02c-.22 0-.42.04-.63.14-.43.19-.74.54-.9 1-.59 1.44.57 3.37 2.22 2.67 1.21-.53 1.34-2.39.53-3.31-.31-.34-.76-.51-1.22-.51zm12.27-.92c-.32 1.97-.8 3.88-1.52 5.77h-1.52l-1.16-4.46-1.16 4.46h-1.49c-.7-1.91-1.21-3.79-1.52-5.77h1.23c.05.38.12.77.21 1.16.22 1.16.52 2.32.89 3.43l1.22-4.61h1.31l1.22 4.64c.36-1.13.68-2.3.89-3.48.08-.4.15-.78.21-1.16h1.2v.02zm5.95 5.21c-.3.21-.63.37-.99.49-3.29 1.09-5.21-2.44-3.31-4.98.23-.26.51-.47.82-.62 2.1-.89 3.7.89 3.35 2.98h-3.69v.05c.03.48.19.93.53 1.25.83.75 2.2.53 3.02-.14l.26.96zm-1.26-2.99c0-.19-.03-.38-.1-.55-.05-.16-.14-.31-.25-.42-.11-.12-.23-.21-.37-.27-.44-.2-1.01-.08-1.34.26-.25.27-.4.61-.47.99h2.53zm2.84-2.22h.94l.1.75c.27-.36.58-.69 1-.81.32-.09.67-.08.96.07l-.11 1.07c-.66-.36-1.31.11-1.68.7v4.01h-1.2v-5.79zm8.62 5.21c-.3.21-.63.37-.99.49-3.29 1.09-5.21-2.44-3.31-4.98.23-.26.51-.47.82-.62 2.1-.89 3.7.89 3.35 2.98h-3.69v.05c.03.48.19.93.53 1.25.83.75 2.2.53 3.02-.14l.26.96zm-1.26-2.99c0-.19-.03-.38-.1-.55-.05-.16-.14-.31-.25-.42-.11-.12-.23-.21-.37-.27-.44-.2-1.01-.08-1.34.26-.25.27-.4.61-.47.99h2.53zm6.8 3.55-.07-.63c-.25.26-.53.45-.83.56-.91.37-2.07.16-2.72-.59-.21-.25-.37-.53-.49-.88-.83-2.72 1.14-4.59 3.87-4.35v-2.61l1.2-.15v8.63h-.96zm-.26-4.84c-.81-.02-1.69 0-2.26.57-.19.19-.33.41-.41.67-.54 1.4.39 3.34 2.07 2.53.23-.11.42-.27.6-.48v-3.3zm6.24-3.64 1.2-.15v3.33c.7-.61 1.77-.73 2.61-.38.62.28 1.04.78 1.26 1.44.37 1.14.19 2.64-.75 3.43-1.01.93-2.59.95-3.94.83-.14 0-.26 0-.38-.03v-8.48zm1.2 7.53c1.06.06 2.31-.12 2.67-1.23.54-1.4-.4-3.31-2.07-2.5-.23.11-.42.27-.6.48v3.27zm10.25-4.82c-.2.96-.48 1.99-.79 2.94-.59 1.72-1.22 3.61-2.52 4.87-.73.69-1.82 1.04-2.72.52l.14-1c.38.26.85.28 1.27.11.64-.29 1.04-.89 1.35-1.53-.67-1.52-1.3-2.97-1.77-4.52-.15-.47-.27-.93-.38-1.38h1.23c.36 1.59.95 3.17 1.6 4.67.6-1.52 1.05-3.08 1.38-4.67h1.21z" fill="#ea1b0a" class="eon" clip-path="url(#eon-area)"/></svg>